# xmcd
#
# Track frame offsets: 
#        150
#        15635
#        28836
#        53869
#        82675
#        95821
#        120597
#        139718
#        157606
#        180177
#        199206
#
# Disc length: 2917 seconds
#
# Revision: 0
# Processed by: cddbd v1.5.2PL0 Copyright (c) Steve Scherf et al.
# Submitted via: ExactAudioCopy v1.3
#
DISCID=7e0b630b
DTITLE=Bad Temper Joe And His Band - Bad Temper Joe And His Band
DYEAR=2017
DGENRE=Blues
TTITLE0=Hard To Do
TTITLE1=Waiting on A Message
TTITLE2=Dr.Jekyll And Mr. Hyde # 4
TTITLE3=Caroline
TTITLE4=Double Trouble
TTITLE5=Can't Wait
TTITLE6=Blind Willy McTell
TTITLE7=I'll Be There
TTITLE8='Til I FellIn Love With You
TTITLE9=Meet Me In Your Dreams
TTITLE10=Blueberry Hill
EXTD=
EXTT0=
EXTT1=
EXTT2=
EXTT3=
EXTT4=
EXTT5=
EXTT6=
EXTT7=
EXTT8=
EXTT9=
EXTT10=
PLAYORDER=
